<?xml version="1.0" standalone="no"?>
<!DOCTYPE svg PUBLIC "-//W3C//DTD SVG 20010904//EN"
 "http://www.w3.org/TR/2001/REC-SVG-20010904/DTD/svg10.dtd">
<svg version="1.0" xmlns="http://www.w3.org/2000/svg"
 width="300.000000pt" height="300.000000pt" viewBox="0 0 300.000000 300.000000"
 preserveAspectRatio="xMidYMid meet">
<metadata>
Created by potrace 1.11, written by Peter Selinger 2001-2013
</metadata>
<g transform="translate(0.000000,300.000000) scale(0.100000,-0.100000)"
fill="#000000" stroke="none">
<path d="M835 2728 c-180 -13 -222 -40 -232 -154 -11 -122 20 -168 150 -219
140 -56 156 -101 108 -296 -32 -133 -58 -222 -199 -699 -50 -168 -102 -354
-117 -415 -34 -143 -78 -231 -165 -330 -154 -174 -176 -272 -79 -359 l39 -36
384 0 c441 0 418 -5 455 96 26 68 26 126 1 181 -17 39 -27 46 -125 93 -95 45
-108 55 -122 88 -46 110 51 341 163 388 46 19 211 27 369 16 124 -8 145 -12
180 -34 119 -75 195 -235 165 -346 -13 -51 -43 -75 -153 -122 -102 -44 -127
-75 -127 -161 0 -32 7 -77 16 -99 30 -75 77 -79 205 -15 106 54 115 53 226
-18 39 -25 89 -50 110 -56 21 -5 142 -11 268 -13 257 -3 281 1 336 58 31 32
34 40 37 110 6 114 -26 166 -122 197 -72 25 -170 82 -204 122 -19 20 -39 62
-51 102 -11 38 -60 205 -110 373 -49 168 -130 435 -180 594 -100 317 -116 386
-108 446 8 65 31 88 133 137 52 25 103 56 113 69 30 38 37 122 16 188 -21 67
-60 106 -117 117 -57 11 -1097 9 -1263 -3z m606 -774 c36 -35 86 -141 109
-232 32 -127 25 -189 -28 -246 -85 -90 -261 -87 -317 6 -43 71 -19 246 52 388
60 118 120 145 184 84z"/>
</g>
</svg>
